HIERARCHY
ROOT Hips
{
    OFFSET 0.000000 0.000000 0.000000
    CHANNELS 6 Xposition Yposition Zposition Zrotation Xrotation Yrotation
        JOINT Chest
        {
            OFFSET -0.000000 31.599348 -0.000000
            CHANNELS 3 Zrotation Xrotation Yrotation
            JOINT Neck
            {
                OFFSET -0.000000 23.422918 0.000000
                CHANNELS 3 Zrotation Xrotation Yrotation
                JOINT Head
                {
                    OFFSET -0.000000 10.877777 0.000000
                    CHANNELS 3 Zrotation Xrotation Yrotation
                    End Site
                    {
                        OFFSET -0.000000 16.811113 0.000000
                    }
                }
            }
            JOINT LeftCollar
            {
                OFFSET -0.000000 23.422918 0.000000
                CHANNELS 3 Zrotation Xrotation Yrotation
                JOINT LeftShoulder
                {
                    OFFSET 22.500000 -0.000000 0.000000
                    CHANNELS 3 Zrotation Xrotation Yrotation
                    JOINT LeftElbow
                    {
                        OFFSET 26.183765 0.000000 0.000000
                        CHANNELS 3 Zrotation Xrotation Yrotation
                        JOINT LeftWrist
                        {
                            OFFSET 21.121546 0.000000 0.000000
                            CHANNELS 3 Zrotation Xrotation Yrotation
                            End Site
                            {
                                OFFSET 14.833334 0.000000 0.000000
                            }
                        }
                    }
                }
            }
            JOINT RightCollar
            {
                OFFSET -0.000000 23.422918 0.000000
                CHANNELS 3 Zrotation Xrotation Yrotation
                JOINT RightShoulder
                {
                    OFFSET -22.500000 0.000000 0.000000
                    CHANNELS 3 Zrotation Xrotation Yrotation
                    JOINT RightElbow
                    {
                        OFFSET -26.183765 0.000000 0.000000
                        CHANNELS 3 Zrotation Xrotation Yrotation
                        JOINT RightWrist
                        {
                            OFFSET -21.121546 0.000000 0.000000
                            CHANNELS 3 Zrotation Xrotation Yrotation
                            End Site
                            {
                                OFFSET -14.833334 0.000000 0.000000
                            }
                        }
                    }
                }
            }
        }
    JOINT LeftHip
    {
        OFFSET 11.866667 0.000000 0.000000
        CHANNELS 3 Zrotation Xrotation Yrotation
        JOINT LeftKnee
        {
            OFFSET -0.000000 -43.651608 0.000000
            CHANNELS 3 Zrotation Xrotation Yrotation
            JOINT LeftAnkle
            {
                OFFSET -0.000000 -37.563271 0.000000
                CHANNELS 3 Zrotation Xrotation Yrotation
                End Site
                {
                    OFFSET -0.000000 -4.944445 16.811113
                }
            }
        }
    }
    JOINT RightHip
    {
        OFFSET -11.866667 0.000000 0.000000
        CHANNELS 3 Zrotation Xrotation Yrotation
        JOINT RightKnee
        {
            OFFSET -0.000000 -43.651608 0.000000
            CHANNELS 3 Zrotation Xrotation Yrotation
            JOINT RightAnkle
            {
                OFFSET -0.000000 -37.563271 0.000000
                CHANNELS 3 Zrotation Xrotation Yrotation
                End Site
                {
                    OFFSET -0.000000 -4.944445 16.811113
                }
            }
        }
    }
}
MOTION
Frames:    14
Frame Time:    0.010000
15.453354    92.516800    25.686165    -28.456768    15.977573    -38.990963    1.156947    43.607796    -22.707365    20.694344    -2.041899    6.716056    5.278766    11.991756    5.778846    -14.250050    1.748081    -13.453924    11.541089    20.258572    -41.717419    44.034775    -8.474490    -20.621603    20.203121    -8.232121    -1.144500    25.883177    -3.681929    -16.035437    30.465145    20.137287    -1.389588    -42.748470    -8.361022    21.305840    -26.474228    -7.599151    2.703644    30.529482    -19.950232    17.132765    5.948519    51.210678    -11.271694    7.381781    -22.260580    27.524864    -18.663837    -50.021896    -3.772067    47.361572    54.312057    -16.455683    13.216133    -14.970280    -42.489353    
15.090044    92.541824    25.702053    -29.151897    15.663440    -38.436543    0.986218    43.367111    -22.651522    20.922953    -1.753407    6.535033    5.210151    12.108383    5.648138    -14.639540    1.769977    -13.228692    10.695131    20.673187    -41.245712    44.280277    -8.486557    -20.518816    20.193317    -8.788904    -0.553249    25.901705    -3.741772    -16.263760    30.282141    19.985355    -1.578745    -42.979408    -8.521197    21.567137    -26.756269    -7.360106    3.049717    30.830795    -19.591230    16.823782    6.402944    51.444035    -11.983115    7.428349    -22.349455    27.901255    -18.889851    -50.222439    -3.491719    46.571838    53.802471    -15.999185    13.079430    -15.116673    -42.542446    
14.729607    92.566170    25.719082    -29.841639    15.359249    -37.880402    0.812908    43.132751    -22.527941    21.135628    -1.489363    6.350537    5.149900    12.211576    5.510689    -15.042562    1.785148    -12.997441    9.819350    21.093079    -40.747726    44.542194    -8.504216    -20.406954    20.120663    -9.345803    0.030254    25.911125    -3.790642    -16.501848    30.072615    19.795725    -1.762285    -43.177921    -8.684578    21.878981    -27.239443    -7.099590    3.338385    31.144428    -19.257097    16.523390    6.877227    51.679543    -12.687594    7.469544    -22.439804    28.246170    -19.089064    -50.377277    -3.145960    45.846851    53.259892    -15.623459    12.913119    -15.263242    -42.517757    
14.372932    92.588104    25.737852    -30.521801    15.060375    -37.327805    0.625125    42.905159    -22.334528    21.333109    -1.250296    6.161503    5.103119    12.302157    5.365246    -15.449544    1.802246    -12.765543    8.909986    21.514540    -40.215801    44.818882    -8.518723    -20.296270    19.995859    -9.907124    0.589984    25.906292    -3.847595    -16.743874    29.853096    19.576412    -1.937107    -43.388573    -8.866683    22.210777    -27.898165    -6.862837    3.592990    31.468311    -18.945570    16.232771    7.366156    51.922153    -13.381992    7.494412    -22.535488    28.548756    -19.267962    -50.494820    -2.770100    45.166752    52.718330    -15.281296    12.737223    -15.405202    -42.455807    
14.020303    92.606201    25.759247    -31.188616    14.761759    -36.782085    0.407101    42.683578    -22.071308    21.525772    -1.031836    5.967548    5.069488    12.382505    5.209927    -15.852384    1.819525    -12.537254    7.979741    21.943550    -39.649563    45.115471    -8.534944    -20.174147    19.837280    -10.475811    1.132646    25.893415    -3.898392    -16.982874    29.627125    19.306595    -2.125665    -43.595913    -9.055954    22.601688    -28.713970    -6.653769    3.834119    31.799826    -18.653280    15.947601    7.858760    52.174835    -14.057492    7.494718    -22.639425    28.801126    -19.434336    -50.582111    -2.407522    44.506748    52.215797    -14.914248    12.570283    -15.539581    -42.398361    
13.671578    92.619392    25.784420    -31.839437    14.458395    -36.245255    0.143660    42.466106    -21.741535    21.724773    -0.827907    5.765294    5.048313    12.452746    5.044059    -16.244017    1.835612    -12.317262    7.042804    22.387829    -39.048092    45.429359    -8.545371    -20.038391    19.656160    -11.050141    1.661106    25.873766    -3.950903    -17.215260    29.408054    18.995115    -2.334031    -43.825607    -9.268927    23.039698    -29.643702    -6.487163    4.068042    32.136307    -18.375326    15.659841    8.339799    52.438717    -14.703083    7.467033    -22.754480    29.001299    -19.595497    -50.643253    -2.098677    43.844379    51.784344    -14.469762    12.425838    -15.661945    -42.375961    
13.326377    92.627235    25.814537    -32.472664    14.146340    -35.718189    -0.175525    42.249290    -21.353733    21.937895    -0.631263    5.554329    5.041104    12.516407    4.866870    -16.620726    1.844125    -12.107321    6.115377    22.859489    -38.414928    45.759747    -8.550674    -19.875477    19.464418    -11.617124    2.182338    25.855602    -3.991586    -17.438660    29.195597    18.637877    -2.573127    -44.068230    -9.514841    23.545408    -30.639896    -6.344148    4.314813    32.475803    -18.106398    15.363261    8.795725    52.712631    -15.314358    7.413544    -22.882072    29.154808    -19.757246    -50.679749    -1.873011    43.164490    51.442551    -13.918104    12.310595    -15.762563    -42.400772    
12.984201    92.629913    25.850586    -33.087803    13.823068    -35.201382    -0.552626    42.028297    -20.922956    22.164566    -0.436464    5.335907    5.054018    12.580461    4.679912    -16.981949    1.845228    -11.904076    5.210276    23.361633    -37.751759    46.093269    -8.546701    -19.684666    19.275152    -12.155171    2.692369    25.839609    -4.032935    -17.651978    28.993906    18.265783    -2.837860    -44.356281    -9.801997    24.087799    -31.634180    -6.236621    4.600553    32.817337    -17.841204    15.060851    9.224025    52.992786    -15.903039    7.341376    -23.022011    29.273302    -19.922621    -50.690414    -1.741145    42.463902    51.190651    -13.258776    12.223083    -15.829205    -42.469658    
12.644773    92.628105    25.893190    -33.683704    13.487340    -34.695644    -0.983417    41.796944    -20.469883    22.397379    -0.240169    5.113021    5.094827    12.654174    4.486340    -17.330910    1.842485    -11.698806    4.341280    23.888361    -37.062965    46.415253    -8.522247    -19.464836    19.103401    -12.652345    3.178101    25.827240    -4.083940    -17.852978    28.797064    17.903917    -3.132616    -44.695244    -10.125641    24.661579    -32.580540    -6.156794    4.944299    33.159447    -17.576033    14.764692    9.633807    53.273590    -16.493990    7.259983    -23.171673    29.370438    -20.093895    -50.673416    -1.696227    41.750866    51.013748    -12.514159    12.156039    -15.851658    -42.571846    
12.308388    92.622749    25.942501    -34.258472    13.139463    -34.202576    -1.461785    41.547226    -20.013496    22.629635    -0.032703    4.888944    5.166038    12.739168    4.291831    -17.673857    1.837219    -11.479568    3.522226    24.431721    -36.352638    46.704788    -8.483686    -19.217346    18.976946    -13.094373    3.640343    25.825611    -4.134349    -18.033476    28.591011    17.555092    -3.462015    -45.070347    -10.474786    25.279112    -33.454533    -6.088408    5.360251    33.499187    -17.308805    14.487397    10.037856    53.548710    -17.107712    7.177418    -23.328001    29.455772    -20.272072    -50.627460    -1.716952    41.042206    50.886860    -11.720372    12.101342    -15.826273    -42.696037    
11.975876    92.614685    25.998384    -34.809868    12.780642    -33.723690    -1.980268    41.272949    -19.568613    22.854813    0.194824    4.667497    5.265734    12.832112    4.099935    -18.016201    1.839030    -11.236332    2.759348    24.970787    -35.618679    46.937172    -8.421264    -18.964674    18.906160    -13.483594    4.062722    25.836134    -4.192847    -18.186802    28.366980    17.235815    -3.818295    -45.484386    -10.857135    25.918453    -34.247311    -6.031581    5.851259    33.831722    -17.039156    14.233159    10.443244    53.813328    -17.748575    7.098289    -23.488636    29.534361    -20.457403    -50.551964    -1.774757    40.358013    50.781792    -10.921154    12.054182    -15.755754    -42.829998    
11.648354    92.604500    26.060823    -35.336205    12.412502    -33.259651    -2.530864    40.970589    -19.144667    23.068171    0.450740    4.448995    5.386046    12.924752    3.917296    -18.366230    1.832232    -10.961627    2.063906    25.504019    -34.868889    47.115402    -8.336584    -18.694899    18.890484    -13.843546    4.439353    25.865406    -4.249050    -18.309227    28.104286    16.942919    -4.195266    -45.909439    -11.260179    26.589558    -34.964794    -5.983412    6.431252    34.150753    -16.768147    13.996367    10.850449    54.065216    -18.405285    7.023329    -23.652441    29.607468    -20.649172    -50.446968    -1.841925    39.715935    50.674530    -10.157788    12.015909    -15.650389    -42.963207    
11.327173    92.592415    26.130014    -35.836761    12.036572    -32.809669    -3.103599    40.638916    -18.749109    23.266256    0.741741    4.236670    5.517239    13.009998    3.746911    -18.725058    1.822693    -10.652179    1.421300    26.012880    -34.090733    47.211185    -8.241493    -18.453238    18.938776    -14.167634    4.784752    25.918470    -4.296084    -18.405073    27.784224    16.685654    -4.566397    -46.336597    -11.679808    27.272999    -35.616879    -5.950523    7.095070    34.449406    -16.498608    13.766696    11.259455    54.305473    -19.062494    6.949835    -23.818222    29.674036    -20.846083    -50.312550    -1.899028    39.124523    50.549957    -9.462317    11.993164    -15.524579    -43.083862    
11.013793    92.578285    26.206034    -36.312035    11.654967    -32.371456    -3.687943    40.277584    -18.386484    23.447321    1.073440    4.030222    5.649246    13.078401    3.592436    -19.090822    1.812409    -10.310001    0.817187    26.485022    -33.278366    47.233063    -8.132629    -18.248438    19.020838    -14.478619    5.082326    26.006836    -4.304622    -18.485592    27.380787    16.460001    -4.899065    -46.741844    -12.103770    27.969593    -36.220821    -5.922915    7.819090    34.722256    -16.235786    13.534302    11.673930    54.538021    -19.710270    6.873491    -23.984455    29.732597    -21.046400    -50.149448    -1.936257    38.583206    50.401665    -8.851008    11.990291    -15.391470    -43.183407    
